<?xml version="1.0"?>
<svg width="26" height="26" xmlns="http://www.w3.org/2000/svg" xmlns:svg="http://www.w3.org/2000/svg">
 <g class="layer">
  <title>Layer 1</title>
  <g id="svg_1">
   <g id="svg_2">
    <path d="m23.5,11.242l-1.927,1.928l-3.187,3.189c-0.153,0.17 -0.34,0.324 -0.511,0.46a6.24,6.24 0 0 1 -6.153,0.905a6.038,6.038 0 0 1 -2.08,-1.365l2.642,-2.644a2.446,2.446 0 0 0 3.46,0l2.028,-2.029l3.085,-3.086a2.447,2.447 0 1 0 -3.46,-3.462l-2.454,2.456a7.068,7.068 0 0 0 -4.908,-0.376l4.72,-4.723c2.404,-2.405 6.341,-2.405 8.744,0c2.42,2.42 2.42,6.343 0,8.748l0.001,-0.001zm-7.654,7.607l-4.618,4.672c-2.403,2.406 -6.34,2.406 -8.744,0c-2.403,-2.404 -2.403,-6.343 0,-8.747l5.113,-5.118c0.068,-0.067 0.154,-0.153 0.239,-0.221a6.191,6.191 0 0 1 6.426,-1.142c0.75,0.29 1.465,0.75 2.079,1.363l-2.642,2.645a2.446,2.446 0 0 0 -3.46,0l-5.113,5.115a2.447,2.447 0 1 0 3.46,3.463l2.352,-2.355c2.011,0.803 2.557,0.87 4.908,0.325z" fill="#ffffff" id="svg_3"/>
    <path d="m23.5,11.242l-1.927,1.928l-3.187,3.189c-0.153,0.17 -0.34,0.324 -0.511,0.46a6.24,6.24 0 0 1 -6.153,0.905a6.038,6.038 0 0 1 -2.08,-1.365l2.642,-2.644a2.446,2.446 0 0 0 3.46,0l2.028,-2.029l3.085,-3.086a2.447,2.447 0 1 0 -3.46,-3.462l-2.454,2.456a7.068,7.068 0 0 0 -4.908,-0.376l4.72,-4.723c2.404,-2.405 6.341,-2.405 8.744,0c2.42,2.42 2.42,6.343 0,8.748l0.001,-0.001zm-7.654,7.607l-4.618,4.672c-2.403,2.406 -6.34,2.406 -8.744,0c-2.403,-2.404 -2.403,-6.343 0,-8.747l5.113,-5.118c0.068,-0.067 0.154,-0.153 0.239,-0.221a6.191,6.191 0 0 1 6.426,-1.142c0.75,0.29 1.465,0.75 2.079,1.363l-2.642,2.645a2.446,2.446 0 0 0 -3.46,0l-5.113,5.115a2.447,2.447 0 1 0 3.46,3.463l2.352,-2.355c2.011,0.803 2.557,0.87 4.908,0.325z" fill="#ffffff" id="svg_4"/>
   </g>
  </g>
 </g>
</svg>