<svg xmlns="http://www.w3.org/2000/svg" width="44" height="40" viewBox="0 0 44 40"  xmlns:xlink="http://www.w3.org/1999/xlink"><rect id="svgEditorBackground" x="0" y="0" width="44" height="40" style="fill:none;stroke:none;"/><g><g><path d="M43.287 11.666L21.851 23.227.414 11.666 21.85.106zm-3.985 5.882l3.985 2.149-21.436 11.556L.414 19.697l3.985-2.15 17.452 9.41zm0 8.025l3.985 2.148-21.436 11.562L.414 27.721l3.985-2.148 17.452 9.412z"/><path d="M43.287,11.666l-21.436,11.561l-21.436999999999998,-11.561l21.436,-11.56ZM39.302,17.548000000000002l3.9849999999999994,2.149000000000001l-21.436,11.556000000000001l-21.436999999999998,-11.556000000000004l3.985,-2.1499999999999986l17.452,9.41ZM39.302,25.573l3.9849999999999994,2.1479999999999997l-21.436,11.562000000000001l-21.436999999999998,-11.562000000000001l3.985,-2.1479999999999997l17.452,9.411999999999999Z" style="fill:#555555;"/></g></g></svg>